<svg xmlns="http://www.w3.org/2000/svg" viewBox="0 0 24 24" fill="none" stroke="#111" stroke-width="1.75" stroke-linecap="round" stroke-linejoin="round">
  
  <path d="M9 5a3 3 0 0 0-3 3v1a2.5 2.5 0 0 0-2 2.5v1A2.5 2.5 0 0 0 6 15v1a3 3 0 0 0 3 3V5Z"></path>
  <path d="M15 5a3 3 0 0 1 3 3v1a2.5 2.5 0 0 1 2 2.5v1A2.5 2.5 0 0 1 18 15v1a3 3 0 0 1-3 3V5Z"></path>
  <circle cx="9" cy="9" r="1" fill="#A4E137" stroke="none"></circle>
  <circle cx="12" cy="13" r="1" fill="#A4E137" stroke="none"></circle>
  <circle cx="15" cy="9" r="1" fill="#A4E137" stroke="none"></circle>
  <line x1="9" y1="9" x2="12" y2="13"></line>
  <line x1="15" y1="9" x2="12" y2="13"></line>
</svg>